<svg width="17" height="17" viewBox="0 0 17 17" fill="none" xmlns="http://www.w3.org/2000/svg">
<path d="M5.61538 1H2.15385C1.51659 1 1 1.51659 1 2.15385V5.61538C1 6.25264 1.51659 6.76923 2.15385 6.76923H5.61538C6.25264 6.76923 6.76923 6.25264 6.76923 5.61538V2.15385C6.76923 1.51659 6.25264 1 5.61538 1Z" stroke="white" stroke-linecap="round" stroke-linejoin="round"/>
<path d="M14.8461 1H11.3846C10.7473 1 10.2307 1.51659 10.2307 2.15385V5.61538C10.2307 6.25264 10.7473 6.76923 11.3846 6.76923H14.8461C15.4833 6.76923 15.9999 6.25264 15.9999 5.61538V2.15385C15.9999 1.51659 15.4833 1 14.8461 1Z" stroke="white" stroke-linecap="round" stroke-linejoin="round"/>
<path d="M5.61538 10.2308H2.15385C1.51659 10.2308 1 10.7474 1 11.3846V14.8462C1 15.4834 1.51659 16 2.15385 16H5.61538C6.25264 16 6.76923 15.4834 6.76923 14.8462V11.3846C6.76923 10.7474 6.25264 10.2308 5.61538 10.2308Z" stroke="white" stroke-linecap="round" stroke-linejoin="round"/>
<path d="M14.8461 10.2308H11.3846C10.7473 10.2308 10.2307 10.7474 10.2307 11.3846V14.8462C10.2307 15.4834 10.7473 16 11.3846 16H14.8461C15.4833 16 15.9999 15.4834 15.9999 14.8462V11.3846C15.9999 10.7474 15.4833 10.2308 14.8461 10.2308Z" stroke="white" stroke-linecap="round" stroke-linejoin="round"/>
</svg>
