<svg width="34" height="34" viewBox="0 0 34 34" fill="none" xmlns="http://www.w3.org/2000/svg">
<path d="M14.3351 8.03507L15.1703 5.87924C15.3111 5.51423 15.5589 5.20026 15.8812 4.97847C16.2035 4.75667 16.5853 4.63739 16.9765 4.63623H18.5691C18.9603 4.63739 19.3421 4.75667 19.6644 4.97847C19.9867 5.20026 20.2345 5.51423 20.3753 5.87924L21.2105 8.03507L24.0461 9.66652L26.3379 9.31692C26.7195 9.26513 27.1079 9.32795 27.4537 9.4974C27.7995 9.66685 28.0872 9.93529 28.2801 10.2686L29.057 11.6281C29.256 11.9668 29.3477 12.3578 29.32 12.7496C29.2923 13.1414 29.1464 13.5156 28.9016 13.8228L27.4838 15.6291V18.892L28.9404 20.6982C29.1852 21.0054 29.3311 21.3796 29.3589 21.7714C29.3866 22.1632 29.2949 22.5543 29.0958 22.8929L28.3189 24.2524C28.126 24.5857 27.8384 24.8542 27.4926 25.0236C27.1467 25.1931 26.7583 25.2559 26.3767 25.2041L24.0849 24.8545L21.2493 26.4859L20.4142 28.6418C20.2733 29.0068 20.0255 29.3208 19.7032 29.5425C19.3809 29.7643 18.9992 29.8836 18.6079 29.8848H16.9765C16.5853 29.8836 16.2035 29.7643 15.8812 29.5425C15.5589 29.3208 15.3111 29.0068 15.1703 28.6418L14.3351 26.4859L11.4995 24.8545L9.20771 25.2041C8.8261 25.2559 8.4377 25.1931 8.09188 25.0236C7.74606 24.8542 7.45842 24.5857 7.26551 24.2524L6.48863 22.8929C6.28956 22.5543 6.19784 22.1632 6.22558 21.7714C6.25332 21.3796 6.39921 21.0054 6.64401 20.6982L8.06181 18.892V15.6291L6.60516 13.8228C6.36037 13.5156 6.21447 13.1414 6.18673 12.7496C6.159 12.3578 6.25071 11.9668 6.44979 11.6281L7.22667 10.2686C7.41957 9.93529 7.70721 9.66685 8.05304 9.4974C8.39886 9.32795 8.78725 9.26513 9.16886 9.31692L11.4607 9.66652L14.3351 8.03507ZM13.8884 17.2605C13.8884 18.0288 14.1162 18.7798 14.543 19.4186C14.9699 20.0573 15.5765 20.5552 16.2863 20.8492C16.9961 21.1432 17.7771 21.2201 18.5306 21.0703C19.2841 20.9204 19.9762 20.5504 20.5195 20.0072C21.0627 19.4639 21.4327 18.7718 21.5826 18.0183C21.7324 17.2648 21.6555 16.4838 21.3615 15.774C21.0675 15.0642 20.5696 14.4576 19.9308 14.0308C19.2921 13.6039 18.5411 13.3761 17.7728 13.3761C16.7426 13.3761 15.7546 13.7854 15.0261 14.5138C14.2976 15.2423 13.8884 16.2303 13.8884 17.2605V17.2605Z" stroke="url(#paint0_linear_227_639)" stroke-width="1.54545" stroke-linecap="round" stroke-linejoin="round"/>
<defs>
<linearGradient id="paint0_linear_227_639" x1="3.19303" y1="0.751826" x2="36.8567" y2="2.64713" gradientUnits="userSpaceOnUse">
<stop stop-color="#BDB4E4"/>
<stop offset="0.870833" stop-color="#9A0BFF"/>
<stop offset="1" stop-color="#7209B7"/>
</linearGradient>
</defs>
</svg>
