<svg width="17" height="17" viewBox="0 0 17 17" fill="none" xmlns="http://www.w3.org/2000/svg">
<path d="M2.15385 7.34619H3.30769C3.4607 7.34619 3.60744 7.40697 3.71564 7.51517C3.82383 7.62336 3.88462 7.7701 3.88462 7.92311V10.8077C3.88462 10.9607 3.82383 11.1075 3.71564 11.2157C3.60744 11.3239 3.4607 11.3847 3.30769 11.3847H2.15385C1.84783 11.3847 1.55434 11.2631 1.33795 11.0467C1.12157 10.8303 1 10.5368 1 10.2308V8.50004C1 8.19402 1.12157 7.90053 1.33795 7.68415C1.55434 7.46776 1.84783 7.34619 2.15385 7.34619V7.34619Z" stroke="#B8B8B8" stroke-linecap="round" stroke-linejoin="round"/>
<path d="M14.8462 11.3846H13.6923C13.5393 11.3846 13.3926 11.3239 13.2844 11.2157C13.1762 11.1075 13.1154 10.9607 13.1154 10.8077V7.92311C13.1154 7.7701 13.1762 7.62335 13.2844 7.51516C13.3926 7.40696 13.5393 7.34618 13.6923 7.34618H14.8462C15.1522 7.34618 15.4457 7.46775 15.662 7.68414C15.8784 7.90052 16 8.19401 16 8.50003V10.2308C16 10.5368 15.8784 10.8303 15.662 11.0467C15.4457 11.2631 15.1522 11.3846 14.8462 11.3846V11.3846Z" stroke="#B8B8B8" stroke-linecap="round" stroke-linejoin="round"/>
<path d="M11.3845 14.5577C11.9966 14.5577 12.5835 14.3146 13.0163 13.8818C13.4491 13.449 13.6922 12.8621 13.6922 12.25V11.3846" stroke="#B8B8B8" stroke-linecap="round" stroke-linejoin="round"/>
<path d="M9.94236 13.1154C10.3249 13.1154 10.6917 13.2673 10.9622 13.5378C11.2327 13.8083 11.3847 14.1751 11.3847 14.5577C11.3847 14.9402 11.2327 15.307 10.9622 15.5775C10.6917 15.848 10.3249 16 9.94236 16H8.21159C7.82907 16 7.46221 15.848 7.19173 15.5775C6.92124 15.307 6.76929 14.9402 6.76929 14.5577C6.76929 14.1751 6.92124 13.8083 7.19173 13.5378C7.46221 13.2673 7.82907 13.1154 8.21159 13.1154H9.94236Z" stroke="#B8B8B8" stroke-linecap="round" stroke-linejoin="round"/>
<path d="M3.30762 7.34615V6.19231C3.30762 4.81522 3.85466 3.49454 4.82841 2.52079C5.80216 1.54705 7.12284 1 8.49993 1C9.87701 1 11.1977 1.54705 12.1714 2.52079C13.1452 3.49454 13.6922 4.81522 13.6922 6.19231V7.34615" stroke="#B8B8B8" stroke-linecap="round" stroke-linejoin="round"/>
<path d="M6.76929 5.03845V6.76922" stroke="#B8B8B8" stroke-linecap="round" stroke-linejoin="round"/>
<path d="M10.2307 5.03845V6.76922" stroke="#B8B8B8" stroke-linecap="round" stroke-linejoin="round"/>
<path d="M6.76929 9.0769C6.76929 10.6115 10.2308 10.6115 10.2308 9.0769" stroke="#B8B8B8" stroke-linecap="round" stroke-linejoin="round"/>
</svg>
