<svg width="54" height="54" viewBox="0 0 54 54" fill="none" xmlns="http://www.w3.org/2000/svg">
<circle cx="27" cy="27" r="27" fill="url(#paint0_linear_137_397)"/>
<path d="M21.0357 35.3616C21.0348 35.6825 21.1205 35.9977 21.2837 36.2739C21.447 36.5502 21.6817 36.7773 21.9632 36.9313C22.2344 37.0879 22.542 37.1703 22.8551 37.1703C23.1682 37.1703 23.4758 37.0879 23.7469 36.9313L36.5719 28.5478C36.8223 28.3861 37.0281 28.1642 37.1706 27.9025C37.3132 27.6408 37.3878 27.3475 37.3878 27.0495C37.3878 26.7514 37.3132 26.4582 37.1706 26.1964C37.0281 25.9347 36.8223 25.7128 36.5719 25.5511L23.7113 17.239C23.4401 17.0824 23.1325 17 22.8194 17C22.5063 17 22.1987 17.0824 21.9275 17.239C21.646 17.393 21.4113 17.6201 21.2481 17.8964C21.0848 18.1726 20.9991 18.4878 21 18.8087L21.0357 35.3616Z" fill="white" stroke="white" stroke-width="1.42067" stroke-linecap="round" stroke-linejoin="round"/>
<defs>
<linearGradient id="paint0_linear_137_397" x1="-6.96226" y1="-8.30772" x2="71.4081" y2="-3.50198" gradientUnits="userSpaceOnUse">
<stop stop-color="#BDB4E4"/>
<stop offset="0.870833" stop-color="#9A0BFF"/>
<stop offset="1" stop-color="#7209B7"/>
</linearGradient>
</defs>
</svg>
