<svg width="25" height="25" viewBox="0 0 25 25" fill="none" xmlns="http://www.w3.org/2000/svg">
<path d="M7.85704 13H6.14275C5.19598 13 4.42847 13.7675 4.42847 14.7143V21.5714C4.42847 22.5182 5.19598 23.2857 6.14275 23.2857H7.85704C8.80381 23.2857 9.57132 22.5182 9.57132 21.5714V14.7143C9.57132 13.7675 8.80381 13 7.85704 13Z" stroke="url(#paint0_linear_137_723)" stroke-width="2" stroke-linecap="round" stroke-linejoin="round"/>
<path d="M18.1429 13H16.4286C15.4819 13 14.7144 13.7675 14.7144 14.7143V21.5714C14.7144 22.5182 15.4819 23.2857 16.4286 23.2857H18.1429C19.0897 23.2857 19.8572 22.5182 19.8572 21.5714V14.7143C19.8572 13.7675 19.0897 13 18.1429 13Z" stroke="url(#paint1_linear_137_723)" stroke-width="2" stroke-linecap="round" stroke-linejoin="round"/>
<path d="M1 16.4286V12.1429C1 9.18759 2.17398 6.35336 4.26367 4.26367C6.35336 2.17398 9.18759 1 12.1429 1C15.0981 1 17.9324 2.17398 20.022 4.26367C22.1117 6.35336 23.2857 9.18759 23.2857 12.1429V16.4286" stroke="url(#paint2_linear_137_723)" stroke-width="2" stroke-linecap="round" stroke-linejoin="round"/>
<defs>
<linearGradient id="paint0_linear_137_723" x1="3.76539" y1="11.4176" x2="11.2503" y2="11.6471" gradientUnits="userSpaceOnUse">
<stop stop-color="#BDB4E4"/>
<stop offset="0.870833" stop-color="#9A0BFF"/>
<stop offset="1" stop-color="#7209B7"/>
</linearGradient>
<linearGradient id="paint1_linear_137_723" x1="14.0513" y1="11.4176" x2="21.5362" y2="11.6471" gradientUnits="userSpaceOnUse">
<stop stop-color="#BDB4E4"/>
<stop offset="0.870833" stop-color="#9A0BFF"/>
<stop offset="1" stop-color="#7209B7"/>
</linearGradient>
<linearGradient id="paint2_linear_137_723" x1="-1.87331" y1="-1.37363" x2="30.3389" y2="1.47955" gradientUnits="userSpaceOnUse">
<stop stop-color="#BDB4E4"/>
<stop offset="0.870833" stop-color="#9A0BFF"/>
<stop offset="1" stop-color="#7209B7"/>
</linearGradient>
</defs>
</svg>
