<svg width="29" height="22" viewBox="0 0 29 22" fill="none" xmlns="http://www.w3.org/2000/svg">
<path d="M0.75 1.66667C0.75 1.35725 0.894866 1.0605 1.15273 0.841709C1.41059 0.622916 1.76033 0.5 2.125 0.5H26.875C27.2397 0.5 27.5894 0.622916 27.8473 0.841709C28.1051 1.0605 28.25 1.35725 28.25 1.66667C28.25 1.97609 28.1051 2.27283 27.8473 2.49162C27.5894 2.71042 27.2397 2.83333 26.875 2.83333H2.125C1.76033 2.83333 1.41059 2.71042 1.15273 2.49162C0.894866 2.27283 0.75 1.97609 0.75 1.66667V1.66667ZM2.125 12.1667H26.875C27.2397 12.1667 27.5894 12.0438 27.8473 11.825C28.1051 11.6062 28.25 11.3094 28.25 11C28.25 10.6906 28.1051 10.3938 27.8473 10.175C27.5894 9.95625 27.2397 9.83333 26.875 9.83333H2.125C1.76033 9.83333 1.41059 9.95625 1.15273 10.175C0.894866 10.3938 0.75 10.6906 0.75 11C0.75 11.3094 0.894866 11.6062 1.15273 11.825C1.41059 12.0438 1.76033 12.1667 2.125 12.1667V12.1667ZM2.125 21.5H26.875C27.2397 21.5 27.5894 21.3771 27.8473 21.1583C28.1051 20.9395 28.25 20.6428 28.25 20.3333C28.25 20.0239 28.1051 19.7272 27.8473 19.5084C27.5894 19.2896 27.2397 19.1667 26.875 19.1667H2.125C1.76033 19.1667 1.41059 19.2896 1.15273 19.5084C0.894866 19.7272 0.75 20.0239 0.75 20.3333C0.75 20.6428 0.894866 20.9395 1.15273 21.1583C1.41059 21.3771 1.76033 21.5 2.125 21.5V21.5Z" fill="white"/>
</svg>
