<svg width="41" height="23" viewBox="0 0 41 23" fill="none" xmlns="http://www.w3.org/2000/svg">
<path d="M40.0432 20.1564C40.0447 20.4973 39.9394 20.8321 39.7387 21.1248C39.5379 21.4175 39.2493 21.6571 38.9038 21.8178C38.5642 21.9949 38.1757 22.0885 37.7798 22.0885C37.3839 22.0885 36.9954 21.9949 36.6558 21.8178L21.0121 12.975C20.7069 12.8054 20.4557 12.5717 20.2817 12.2954C20.1077 12.019 20.0165 11.709 20.0165 11.394C20.0165 11.0789 20.1077 10.7689 20.2817 10.4926C20.4557 10.2162 20.7069 9.98252 21.0121 9.81297L36.6558 0.916532C36.9954 0.739421 37.3839 0.645874 37.7798 0.645874C38.1757 0.645874 38.5642 0.739421 38.9038 0.916532C39.2493 1.07723 39.5379 1.31681 39.7387 1.60953C39.9394 1.90225 40.0447 2.23704 40.0432 2.57791V20.1564Z" fill="white"/>
<path d="M20.0266 20.1564C20.0281 20.4973 19.9228 20.8321 19.722 21.1248C19.5213 21.4175 19.2327 21.6571 18.8872 21.8178C18.5476 21.9949 18.1591 22.0885 17.7632 22.0885C17.3673 22.0885 16.9788 21.9949 16.6392 21.8178L0.99552 12.975C0.690327 12.8054 0.439137 12.5717 0.265133 12.2954C0.0911293 12.019 -8.2016e-05 11.709 -8.2016e-05 11.394C-8.2016e-05 11.0789 0.0911293 10.7689 0.265133 10.4926C0.439137 10.2162 0.690327 9.98252 0.99552 9.81297L16.6392 0.916532C16.9788 0.739421 17.3673 0.645874 17.7632 0.645874C18.1591 0.645874 18.5476 0.739421 18.8872 0.916532C19.2236 1.07287 19.5063 1.30406 19.7064 1.58652C19.9066 1.86897 20.0171 2.19258 20.0266 2.52432V20.1564Z" fill="white"/>
</svg>
