<svg width="41" height="23" viewBox="0 0 41 23" fill="none" xmlns="http://www.w3.org/2000/svg">
<path d="M0.956803 20.1564C0.955312 20.4973 1.0606 20.8321 1.26135 21.1248C1.4621 21.4175 1.75072 21.6571 2.0962 21.8178C2.4358 21.9949 2.82429 22.0885 3.22021 22.0885C3.61613 22.0885 4.00462 21.9949 4.34421 21.8178L19.9879 12.975C20.2931 12.8054 20.5443 12.5717 20.7183 12.2954C20.8923 12.019 20.9835 11.709 20.9835 11.394C20.9835 11.0789 20.8923 10.7689 20.7183 10.4926C20.5443 10.2162 20.2931 9.98252 19.9879 9.81297L4.34421 0.916532C4.00462 0.739421 3.61613 0.645874 3.22021 0.645874C2.82429 0.645874 2.4358 0.739421 2.0962 0.916532C1.75072 1.07723 1.4621 1.31681 1.26135 1.60953C1.0606 1.90225 0.955312 2.23704 0.956803 2.57791V20.1564Z" fill="white"/>
<path d="M20.9734 20.1564C20.9719 20.4973 21.0772 20.8321 21.278 21.1248C21.4787 21.4175 21.7673 21.6571 22.1128 21.8178C22.4524 21.9949 22.8409 22.0885 23.2368 22.0885C23.6327 22.0885 24.0212 21.9949 24.3608 21.8178L40.0045 12.975C40.3097 12.8054 40.5609 12.5717 40.7349 12.2954C40.9089 12.019 41.0001 11.709 41.0001 11.394C41.0001 11.0789 40.9089 10.7689 40.7349 10.4926C40.5609 10.2162 40.3097 9.98252 40.0045 9.81297L24.3608 0.916532C24.0212 0.739421 23.6327 0.645874 23.2368 0.645874C22.8409 0.645874 22.4524 0.739421 22.1128 0.916532C21.7764 1.07287 21.4937 1.30406 21.2936 1.58652C21.0934 1.86897 20.9829 2.19258 20.9734 2.52432V20.1564Z" fill="white"/>
</svg>
