<svg width="455" height="23" viewBox="0 0 455 23" fill="none" xmlns="http://www.w3.org/2000/svg">
<rect y="3" width="455" height="5" rx="2.5" fill="#464646"/>
<rect y="3" width="332" height="5" rx="2.5" fill="url(#paint0_linear_137_275)"/>
<circle cx="331.5" cy="5.5" r="5.5" fill="url(#paint1_linear_137_275)"/>
<path d="M3.125 21.0994C2.58996 21.0994 2.13423 20.9538 1.75781 20.6626C1.38139 20.3691 1.09375 19.9441 0.894886 19.3878C0.696023 18.8291 0.596591 18.1544 0.596591 17.3636C0.596591 16.5777 0.696023 15.9065 0.894886 15.3501C1.09612 14.7914 1.38494 14.3653 1.76136 14.0717C2.14015 13.7758 2.5947 13.6278 3.125 13.6278C3.6553 13.6278 4.10866 13.7758 4.48509 14.0717C4.86387 14.3653 5.1527 14.7914 5.35156 15.3501C5.55279 15.9065 5.65341 16.5777 5.65341 17.3636C5.65341 18.1544 5.55398 18.8291 5.35511 19.3878C5.15625 19.9441 4.86861 20.3691 4.49219 20.6626C4.11577 20.9538 3.66004 21.0994 3.125 21.0994ZM3.125 20.3182C3.6553 20.3182 4.06723 20.0625 4.3608 19.5511C4.65436 19.0398 4.80114 18.3106 4.80114 17.3636C4.80114 16.7339 4.73366 16.1977 4.59872 15.755C4.46615 15.3123 4.27438 14.9749 4.02344 14.7429C3.77486 14.5109 3.47538 14.3949 3.125 14.3949C2.59943 14.3949 2.18868 14.6541 1.89276 15.1726C1.59683 15.6887 1.44886 16.419 1.44886 17.3636C1.44886 17.9934 1.51515 18.5284 1.64773 18.9688C1.7803 19.4091 1.97088 19.7441 2.21946 19.9737C2.47041 20.2034 2.77225 20.3182 3.125 20.3182ZM7.20284 21V20.3608L9.60341 17.733C9.88513 17.4252 10.1171 17.1577 10.2994 16.9304C10.4817 16.7008 10.6167 16.4853 10.7043 16.2841C10.7942 16.0805 10.8392 15.8674 10.8392 15.6449C10.8392 15.3892 10.7777 15.1679 10.6545 14.9808C10.5338 14.7938 10.3681 14.6494 10.1574 14.5476C9.94669 14.4458 9.70994 14.3949 9.44716 14.3949C9.1678 14.3949 8.92396 14.4529 8.71562 14.5689C8.50966 14.6825 8.34986 14.8423 8.23622 15.0483C8.12495 15.2543 8.06932 15.4957 8.06932 15.7727H7.23125C7.23125 15.3466 7.3295 14.9725 7.52599 14.6506C7.72249 14.3286 7.99001 14.0777 8.32855 13.8977C8.66946 13.7178 9.0518 13.6278 9.47557 13.6278C9.9017 13.6278 10.2793 13.7178 10.6084 13.8977C10.9375 14.0777 11.1955 14.3203 11.3825 14.6257C11.5696 14.9311 11.6631 15.2708 11.6631 15.6449C11.6631 15.9124 11.6145 16.174 11.5175 16.4297C11.4228 16.683 11.2571 16.9659 11.0203 17.2784C10.7859 17.5885 10.4604 17.9673 10.0437 18.4148L8.41023 20.1619V20.2188H11.7909V21H7.20284ZM14.0825 21.0568C13.9073 21.0568 13.757 20.9941 13.6315 20.8686C13.5061 20.7431 13.4433 20.5928 13.4433 20.4176C13.4433 20.2424 13.5061 20.0921 13.6315 19.9666C13.757 19.8411 13.9073 19.7784 14.0825 19.7784C14.2577 19.7784 14.408 19.8411 14.5335 19.9666C14.659 20.0921 14.7217 20.2424 14.7217 20.4176C14.7217 20.5336 14.6921 20.6402 14.633 20.7372C14.5761 20.8343 14.4992 20.9124 14.4021 20.9716C14.3074 21.0284 14.2009 21.0568 14.0825 21.0568ZM18.0991 13.7273V21H17.2184V14.6506H17.1758L15.4002 15.8295V14.9347L17.2184 13.7273H18.0991ZM22.7629 21.0994C22.2279 21.0994 21.7721 20.9538 21.3957 20.6626C21.0193 20.3691 20.7316 19.9441 20.5328 19.3878C20.3339 18.8291 20.2345 18.1544 20.2345 17.3636C20.2345 16.5777 20.3339 15.9065 20.5328 15.3501C20.734 14.7914 21.0228 14.3653 21.3993 14.0717C21.778 13.7758 22.2326 13.6278 22.7629 13.6278C23.2932 13.6278 23.7466 13.7758 24.123 14.0717C24.5018 14.3653 24.7906 14.7914 24.9895 15.3501C25.1907 15.9065 25.2913 16.5777 25.2913 17.3636C25.2913 18.1544 25.1919 18.8291 24.993 19.3878C24.7941 19.9441 24.5065 20.3691 24.1301 20.6626C23.7537 20.9538 23.2979 21.0994 22.7629 21.0994ZM22.7629 20.3182C23.2932 20.3182 23.7051 20.0625 23.9987 19.5511C24.2922 19.0398 24.439 18.3106 24.439 17.3636C24.439 16.7339 24.3716 16.1977 24.2366 15.755C24.104 15.3123 23.9123 14.9749 23.6613 14.7429C23.4127 14.5109 23.1133 14.3949 22.7629 14.3949C22.2373 14.3949 21.8266 14.6541 21.5306 15.1726C21.2347 15.6887 21.0868 16.419 21.0868 17.3636C21.0868 17.9934 21.153 18.5284 21.2856 18.9688C21.4182 19.4091 21.6088 19.7441 21.8574 19.9737C22.1083 20.2034 22.4101 20.3182 22.7629 20.3182Z" fill="#F1F1F1"/>
<path d="M432.125 21.0994C431.59 21.0994 431.134 20.9538 430.758 20.6626C430.381 20.3691 430.094 19.9441 429.895 19.3878C429.696 18.8291 429.597 18.1544 429.597 17.3636C429.597 16.5777 429.696 15.9065 429.895 15.3501C430.096 14.7914 430.385 14.3653 430.761 14.0717C431.14 13.7758 431.595 13.6278 432.125 13.6278C432.655 13.6278 433.109 13.7758 433.485 14.0717C433.864 14.3653 434.153 14.7914 434.352 15.3501C434.553 15.9065 434.653 16.5777 434.653 17.3636C434.653 18.1544 434.554 18.8291 434.355 19.3878C434.156 19.9441 433.869 20.3691 433.492 20.6626C433.116 20.9538 432.66 21.0994 432.125 21.0994ZM432.125 20.3182C432.655 20.3182 433.067 20.0625 433.361 19.5511C433.654 19.0398 433.801 18.3106 433.801 17.3636C433.801 16.7339 433.734 16.1977 433.599 15.755C433.466 15.3123 433.274 14.9749 433.023 14.7429C432.775 14.5109 432.475 14.3949 432.125 14.3949C431.599 14.3949 431.189 14.6541 430.893 15.1726C430.597 15.6887 430.449 16.419 430.449 17.3636C430.449 17.9934 430.515 18.5284 430.648 18.9688C430.78 19.4091 430.971 19.7441 431.219 19.9737C431.47 20.2034 431.772 20.3182 432.125 20.3182ZM438.76 13.7273V21H437.879V14.6506H437.836L436.061 15.8295V14.9347L437.879 13.7273H438.76ZM441.247 21.0568C441.071 21.0568 440.921 20.9941 440.796 20.8686C440.67 20.7431 440.607 20.5928 440.607 20.4176C440.607 20.2424 440.67 20.0921 440.796 19.9666C440.921 19.8411 441.071 19.7784 441.247 19.7784C441.422 19.7784 441.572 19.8411 441.698 19.9666C441.823 20.0921 441.886 20.2424 441.886 20.4176C441.886 20.5336 441.856 20.6402 441.797 20.7372C441.74 20.8343 441.663 20.9124 441.566 20.9716C441.471 21.0284 441.365 21.0568 441.247 21.0568ZM445.263 13.7273V21H444.382V14.6506H444.34L442.564 15.8295V14.9347L444.382 13.7273H445.263ZM449.927 21.0994C449.392 21.0994 448.936 20.9538 448.56 20.6626C448.183 20.3691 447.896 19.9441 447.697 19.3878C447.498 18.8291 447.399 18.1544 447.399 17.3636C447.399 16.5777 447.498 15.9065 447.697 15.3501C447.898 14.7914 448.187 14.3653 448.563 14.0717C448.942 13.7758 449.397 13.6278 449.927 13.6278C450.457 13.6278 450.911 13.7758 451.287 14.0717C451.666 14.3653 451.955 14.7914 452.154 15.3501C452.355 15.9065 452.455 16.5777 452.455 17.3636C452.455 18.1544 452.356 18.8291 452.157 19.3878C451.958 19.9441 451.671 20.3691 451.294 20.6626C450.918 20.9538 450.462 21.0994 449.927 21.0994ZM449.927 20.3182C450.457 20.3182 450.869 20.0625 451.163 19.5511C451.456 19.0398 451.603 18.3106 451.603 17.3636C451.603 16.7339 451.536 16.1977 451.401 15.755C451.268 15.3123 451.076 14.9749 450.825 14.7429C450.577 14.5109 450.277 14.3949 449.927 14.3949C449.401 14.3949 448.991 14.6541 448.695 15.1726C448.399 15.6887 448.251 16.419 448.251 17.3636C448.251 17.9934 448.317 18.5284 448.45 18.9688C448.582 19.4091 448.773 19.7441 449.021 19.9737C449.272 20.2034 449.574 20.3182 449.927 20.3182Z" fill="#F1F1F1"/>
<defs>
<linearGradient id="paint0_linear_137_275" x1="-42.805" y1="2.23077" x2="-15.292" y2="114.256" gradientUnits="userSpaceOnUse">
<stop stop-color="#BDB4E4"/>
<stop offset="0.870833" stop-color="#9A0BFF"/>
<stop offset="1" stop-color="#7209B7"/>
</linearGradient>
<linearGradient id="paint1_linear_137_275" x1="324.582" y1="-1.69231" x2="340.546" y2="-0.713367" gradientUnits="userSpaceOnUse">
<stop stop-color="#BDB4E4"/>
<stop offset="0.870833" stop-color="#9A0BFF"/>
<stop offset="1" stop-color="#7209B7"/>
</linearGradient>
</defs>
</svg>
