<svg width="29" height="32" viewBox="0 0 29 32" fill="none" xmlns="http://www.w3.org/2000/svg">
<path d="M2.09521 1.93542V30.3676" stroke="white" stroke-width="2.6129" stroke-linecap="round" stroke-linejoin="round"/>
<path d="M28.0689 26.3435C28.0701 26.737 27.9493 27.1234 27.7193 27.4621C27.4893 27.8009 27.1585 28.0793 26.7619 28.2682C26.3798 28.4601 25.9464 28.5612 25.5052 28.5612C25.064 28.5612 24.6306 28.4601 24.2485 28.2682L6.17706 17.9889C5.82431 17.7906 5.53428 17.5186 5.33345 17.1976C5.13262 16.8767 5.0274 16.5171 5.0274 16.1517C5.0274 15.7863 5.13262 15.4267 5.33345 15.1058C5.53428 14.7848 5.82431 14.5128 6.17706 14.3146L24.2987 4.12273C24.6808 3.93077 25.1143 3.82971 25.5555 3.82971C25.9966 3.82971 26.4301 3.93077 26.8122 4.12273C27.2088 4.31158 27.5396 4.59003 27.7696 4.92876C27.9996 5.26748 28.1204 5.65392 28.1191 6.04736L28.0689 26.3435Z" fill="white" stroke="white" stroke-width="1.74194" stroke-linecap="round" stroke-linejoin="round"/>
</svg>
