<svg width="29" height="32" viewBox="0 0 29 32" fill="none" xmlns="http://www.w3.org/2000/svg">
<path d="M27.3215 1.93542V30.3676" stroke="white" stroke-width="2.6129" stroke-linecap="round" stroke-linejoin="round"/>
<path d="M1.34764 26.3435C1.34641 26.737 1.46716 27.1234 1.69718 27.4621C1.9272 27.8009 2.25796 28.0793 2.65461 28.2682C3.0367 28.4601 3.47012 28.5612 3.91132 28.5612C4.35251 28.5612 4.78594 28.4601 5.16802 28.2682L23.2394 17.9889C23.5922 17.7906 23.8822 17.5186 24.0831 17.1976C24.2839 16.8767 24.3891 16.5171 24.3891 16.1517C24.3891 15.7863 24.2839 15.4267 24.0831 15.1058C23.8822 14.7848 23.5922 14.5128 23.2394 14.3146L5.11776 4.12273C4.73567 3.93077 4.30225 3.82971 3.86105 3.82971C3.41986 3.82971 2.98643 3.93077 2.60435 4.12273C2.20769 4.31158 1.87693 4.59003 1.64691 4.92876C1.41689 5.26748 1.29614 5.65392 1.29737 6.04736L1.34764 26.3435Z" fill="white" stroke="white" stroke-width="1.74194" stroke-linecap="round" stroke-linejoin="round"/>
</svg>
