<svg width="60" height="60" viewBox="0 0 60 60" fill="none" xmlns="http://www.w3.org/2000/svg">
<path d="M16.3204 22.9434H11.3281C10.4455 22.9434 9.59894 23.294 8.97479 23.9182C8.35064 24.5423 8 25.3888 8 26.2715V32.9278C8 33.8105 8.35064 34.657 8.97479 35.2812C9.59894 35.9053 10.4455 36.256 11.3281 36.256H16.3204V22.9434Z" stroke="white" stroke-width="3.45267" stroke-linecap="round" stroke-linejoin="round"/>
<path d="M16.3203 36.256L29.3334 45.6081C29.8155 45.9417 30.3772 46.142 30.9617 46.1887C31.5461 46.2355 32.1325 46.127 32.6615 45.8743C33.2353 45.6166 33.7243 45.2016 34.0718 44.6773C34.4193 44.1531 34.6112 43.5411 34.6251 42.9123V16.2871C34.6394 15.6894 34.4924 15.0989 34.1995 14.5777C33.9067 14.0565 33.4789 13.6238 32.9611 13.325C32.432 13.0723 31.8456 12.9638 31.2612 13.0106C30.6768 13.0574 30.1151 13.2577 29.6329 13.5913L16.3203 22.9434" stroke="white" stroke-width="3.45267" stroke-linecap="round" stroke-linejoin="round"/>
<path d="M42 22L58 38M58 22L42 38" stroke="white" stroke-width="3.3" stroke-linecap="round" stroke-linejoin="round"/>
</svg>
