<svg width="47" height="37" viewBox="0 0 47 37" fill="none" xmlns="http://www.w3.org/2000/svg">
<path d="M10.3205 11.9733H5.32827C4.44559 11.9733 3.59906 12.324 2.97491 12.9481C2.35077 13.5723 2.00012 14.4188 2.00012 15.3015V21.9578C2.00012 22.8405 2.35077 23.687 2.97491 24.3111C3.59906 24.9353 4.44559 25.2859 5.32827 25.2859H10.3205V11.9733Z" stroke="white" stroke-width="3.45267" stroke-linecap="round" stroke-linejoin="round"/>
<path d="M10.3204 25.286L23.3335 34.6381C23.8156 34.9717 24.3773 35.172 24.9618 35.2188C25.5462 35.2655 26.1326 35.1571 26.6617 34.9043C27.2354 34.6466 27.7244 34.2316 28.0719 33.7073C28.4194 33.1831 28.6113 32.5711 28.6253 31.9423V5.31709C28.6395 4.71942 28.4925 4.12895 28.1997 3.60773C27.9068 3.08651 27.479 2.65379 26.9612 2.35504C26.4321 2.10234 25.8457 1.99388 25.2613 2.04063C24.6769 2.08738 24.1152 2.28769 23.633 2.62129L10.3204 11.9734" stroke="white" stroke-width="3.45267" stroke-linecap="round" stroke-linejoin="round"/>
<path d="M41.938 8.64508C44.252 11.4427 45.4388 15.0031 45.2661 18.6295C45.2162 22.7398 44.067 26.7618 41.938 30.2781" stroke="white" stroke-width="3.45267" stroke-linecap="round" stroke-linejoin="round"/>
<path d="M35.2815 13.6375C36.4385 15.0363 37.0319 16.8165 36.9456 18.6297C37.0319 20.443 36.4385 22.2232 35.2815 23.622" stroke="white" stroke-width="3.45267" stroke-linecap="round" stroke-linejoin="round"/>
</svg>
